<?xml version="1.0" standalone="no"?><!DOCTYPE svg PUBLIC "-//W3C//DTD SVG 1.1//EN" "http://www.w3.org/Graphics/SVG/1.1/DTD/svg11.dtd"><svg t="1552373778776" class="icon" style="" viewBox="0 0 1024 1024" version="1.1" xmlns="http://www.w3.org/2000/svg" p-id="24769" xmlns:xlink="http://www.w3.org/1999/xlink" width="32" height="32"><defs><style type="text/css"></style></defs><path d="M533.333333 170.666667h-213.333333A64 64 0 0 0 256 234.666667v554.666666A64 64 0 0 0 320 853.333333h213.333333c138.154667 0 234.666667-87.722667 234.666667-213.333333 0-66.773333-33.237333-122.112-81.152-159.658667A200.021333 200.021333 0 0 0 725.333333 362.666667C725.333333 269.568 658.048 170.666667 533.333333 170.666667zM384 298.666667h149.333333c50.517333 0 64 40.234667 64 64s-13.482667 64-64 64H384V298.666667z m149.333333 426.666666H384v-170.666666h149.333333c50.346667 0 106.666667 36.48 106.666667 85.333333 0 53.418667-39.893333 85.333333-106.666667 85.333333z" fill="" p-id="24770"></path></svg>