<?xml version="1.0" standalone="no"?><!DOCTYPE svg PUBLIC "-//W3C//DTD SVG 1.1//EN" "http://www.w3.org/Graphics/SVG/1.1/DTD/svg11.dtd"><svg t="1552371788787" class="icon" style="" viewBox="0 0 1024 1024" version="1.1" xmlns="http://www.w3.org/2000/svg" p-id="23044" xmlns:xlink="http://www.w3.org/1999/xlink" width="32" height="32"><defs><style type="text/css"></style></defs><path d="M192 320C157.866667 320 128 290.133333 128 256s29.866667-64 64-64S256 221.866667 256 256s-29.866667 64-64 64zM341.333333 256c0-34.133333 29.866667-64 64-64h426.666667c34.133333 0 64 29.866667 64 64s-29.866667 64-64 64h-426.666667C371.2 320 341.333333 290.133333 341.333333 256zM192 832c-34.133333 0-64-29.866667-64-64s29.866667-64 64-64S256 733.866667 256 768s-29.866667 64-64 64zM341.333333 768c0-34.133333 29.866667-64 64-64h426.666667c34.133333 0 64 29.866667 64 64s-29.866667 64-64 64h-426.666667c-34.133333 0-64-29.866667-64-64z" p-id="23045"></path><path d="M192 576c-34.133333 0-64-29.866667-64-64s29.866667-64 64-64S256 477.866667 256 512s-29.866667 64-64 64zM341.333333 512c0-34.133333 29.866667-64 64-64h426.666667c34.133333 0 64 29.866667 64 64s-29.866667 64-64 64h-426.666667c-34.133333 0-64-29.866667-64-64z" p-id="23046"></path></svg>