<?xml version="1.0" standalone="no"?><!DOCTYPE svg PUBLIC "-//W3C//DTD SVG 1.1//EN" "http://www.w3.org/Graphics/SVG/1.1/DTD/svg11.dtd"><svg t="1553046553852" class="icon" style="" viewBox="0 0 1035 1024" version="1.1" xmlns="http://www.w3.org/2000/svg" p-id="4962" xmlns:xlink="http://www.w3.org/1999/xlink" width="32.34375" height="32"><defs><style type="text/css"></style></defs><path d="M359.225267 837.964029c-2.548171 0-5.095126-0.838038-7.221238-2.546955-4.94552-3.987067-5.726392-11.237497-1.739325-16.180584L771.396548 296.643638l-36.437026-86.733915-66.640459-53.696478-92.505311-17.169445L154.684341 661.634218c-4.001663 4.960116-11.252092 5.693551-16.183017 1.736892-4.944304-3.982202-5.722743-11.23628-1.738108-16.180584l429.759137-533.290306 111.71086 20.735669 75.693461 61.008939 44.01586 104.745047-429.759137 533.28909C365.906463 836.495941 362.581069 837.964029 359.225267 837.964029z" p-id="4963" fill="#72cdfd"></path><path d="M784.671366 310.023058c-2.548171 0-5.09391-0.840471-7.222454-2.546955-4.944304-3.984635-5.723959-11.237497-1.738108-16.183017l69.023212-85.685455L808.299422 118.874931l-66.629512-53.681882L649.165815 48.007792l-69.039024 85.686672c-3.995581 4.943088-11.235064 5.692335-16.179368 1.736892-4.943088-3.985851-5.723959-11.23628-1.740541-16.180584L639.879281 22.866645l111.71086 20.751481 75.674 60.994344 44.021941 104.741399-77.656587 96.385343C791.352561 308.553754 788.024735 310.023058 784.671366 310.023058z" p-id="4964" fill="#72cdfd"></path><path d="M216.891347 723.27199c-2.548171 0-5.09391-0.838038-7.222454-2.548171-4.943088-3.985851-5.722743-11.237497-1.738108-16.180584l425.446099-527.956783c3.99923-4.957683 11.252092-5.706931 16.180584-1.736892 4.944304 3.984635 5.723959 11.23628 1.735676 16.1818L225.850693 718.988143C223.573759 721.805119 220.247149 723.27199 216.891347 723.27199z" p-id="4965" fill="#72cdfd"></path><path d="M288.057699 780.610103c-2.548171 0-5.092694-0.838038-7.221238-2.546955-4.943088-3.987067-5.722743-11.235064-1.738108-16.1818l425.444882-527.940971c4.013826-4.943088 11.252092-5.692335 16.180584-1.738108 4.943088 3.984635 5.723959 11.23628 1.740541 16.1818L297.017045 776.327473C294.738895 779.143232 291.414717 780.610103 288.057699 780.610103z" p-id="4966" fill="#72cdfd"></path><path d="M118.021081 907.303481l4.19384-238.209628c0.121631-6.319952 4.75091-11.790918 11.717939-11.297096 6.351576 0.119198 11.401699 5.351768 11.29588 11.715507l-3.685422 208.572996 203.029051-47.927515c6.217781-1.452275 12.389343 2.352345 13.842835 8.539719 1.469304 6.18859-2.366941 12.391776-8.555531 13.8477L118.021081 907.303481z" p-id="4967" fill="#72cdfd"></path><path d="M202.253045 887.093259c-2.546955 0-5.09391-0.840471-7.222454-2.549388l-71.151756-57.353925c-4.944304-3.980986-5.723959-11.23628-1.738108-16.180584 4.001663-4.9589 11.252092-5.691119 16.180584-1.735676l71.154189 57.34906c4.944304 3.987067 5.723959 11.241146 1.736892 16.184233C208.935457 885.623956 205.608847 887.093259 202.253045 887.093259z" p-id="4968" fill="#72cdfd"></path><path d="M905.431579 1003.80559 129.782808 1003.80559c-6.352792 0-11.506301-5.153509-11.506301-11.505085 0-6.352792 5.153509-11.506301 11.506301-11.506301l775.649988 0c6.350359 0 11.505085 5.153509 11.505085 11.506301C916.936664 998.65208 911.781938 1003.80559 905.431579 1003.80559z" p-id="4969" fill="#72cdfd"></path></svg>