<?xml version="1.0" standalone="no"?><!DOCTYPE svg PUBLIC "-//W3C//DTD SVG 1.1//EN" "http://www.w3.org/Graphics/SVG/1.1/DTD/svg11.dtd"><svg t="1552376466611" class="icon" style="" viewBox="0 0 1024 1024" version="1.1" xmlns="http://www.w3.org/2000/svg" p-id="28951" xmlns:xlink="http://www.w3.org/1999/xlink" width="32" height="32"><defs><style type="text/css"></style></defs><path d="M1024 512l0 64-234.496 0c27.50464 38.5024 42.496 82.69824 42.496 128 0 70.88128-36.6592 139.01824-100.57728 186.96192-59.35104 44.52352-137.27744 69.03808-219.42272 69.03808s-160.07168-24.51456-219.42272-69.03808c-63.91808-47.94368-100.57728-116.08064-100.57728-186.96192l128 0c0 69.38624 87.92064 128 192 128s192-58.61376 192-128c0-69.38624-87.92064-128-192-128l-512 0 0-64 299.52 0c-2.33472-1.65888-4.64896-3.31776-6.94272-5.03808-63.91808-47.94368-100.57728-116.08064-100.57728-186.96192s36.6592-139.01824 100.57728-186.96192c59.35104-44.52352 137.27744-69.03808 219.42272-69.03808s160.07168 24.51456 219.42272 69.03808c63.91808 47.94368 100.57728 116.08064 100.57728 186.96192l-128 0c0-69.38624-87.92064-128-192-128s-192 58.61376-192 128c0 69.38624 87.92064 128 192 128 78.97088 0 154.05056 22.67136 212.48 64l299.52 0z" p-id="28952"></path></svg>