<?xml version="1.0" standalone="no"?><!DOCTYPE svg PUBLIC "-//W3C//DTD SVG 1.1//EN" "http://www.w3.org/Graphics/SVG/1.1/DTD/svg11.dtd"><svg t="1552371627244" class="icon" style="" viewBox="0 0 1024 1024" version="1.1" xmlns="http://www.w3.org/2000/svg" p-id="22208" xmlns:xlink="http://www.w3.org/1999/xlink" width="32" height="32"><defs><style type="text/css"></style></defs><path d="M799.979854 308.218804l-62.851467 45.302789 0-13.878079c0-63.452147-51.446719-114.898867-114.901936-114.898867L277.522688 224.744647c-63.454194 0-114.898867 51.446719-114.898867 114.898867-31.745005 0-57.452503 25.712615-57.452503 57.45148l0 143.627165c0 31.739888 25.706475 57.452503 57.452503 57.452503l0 86.175685c0 63.454194 51.443649 114.903983 114.898867 114.903983l344.703763 0c63.454194 0 114.901936-51.450812 114.901936-114.903983l0-13.814634 59.83783 49.723471c92.175329 64.632019 112.512517-35.908838 112.512517-35.908838L909.478733 336.054779C909.479757 225.922473 799.979854 308.218804 799.979854 308.218804L799.979854 308.218804 799.979854 308.218804zM376.826368 623.390973 376.826368 405.548526 562.282197 514.470261 376.826368 623.390973 376.826368 623.390973 376.826368 623.390973zM372.661511 684.347277" p-id="22209"></path></svg>